<?xml version="1.0" encoding="utf-8"?>
<svg xmlns="http://www.w3.org/2000/svg" viewBox="3.366 18.315 17.415 3.735" width="580.5px" height="129.88480765051077px" preserveAspectRatio="none"><g id="object-3"><path d="M 3.366 21.992 L 3.366 18.373 L 5.139 18.373 L 5.139 18.782 L 3.783 18.782 L 3.783 19.891 L 4.982 19.891 L 4.982 20.299 L 3.783 20.299 L 3.783 21.583 L 5.295 21.583 L 5.295 21.992 L 3.366 21.992 Z M 5.712 20.649 C 5.712 20.377 5.747 20.163 5.816 20.007 C 5.886 19.813 5.99 19.657 6.129 19.54 C 6.234 19.424 6.373 19.346 6.546 19.307 C 6.72 19.229 6.894 19.19 7.068 19.19 C 7.172 19.19 7.294 19.21 7.433 19.249 C 7.537 19.249 7.659 19.268 7.798 19.307 L 7.693 19.774 C 7.589 19.696 7.485 19.657 7.381 19.657 C 7.276 19.657 7.172 19.657 7.068 19.657 C 6.963 19.657 6.859 19.677 6.755 19.716 C 6.616 19.754 6.512 19.813 6.442 19.891 C 6.373 19.968 6.303 20.066 6.234 20.182 C 6.199 20.299 6.181 20.455 6.181 20.649 C 6.181 20.805 6.199 20.941 6.234 21.058 C 6.303 21.174 6.373 21.291 6.442 21.408 C 6.512 21.486 6.616 21.544 6.755 21.583 C 6.859 21.622 6.981 21.641 7.12 21.641 C 7.224 21.641 7.328 21.622 7.433 21.583 C 7.537 21.583 7.641 21.564 7.746 21.525 L 7.85 21.933 C 7.711 21.972 7.589 21.992 7.485 21.992 C 7.346 22.03 7.207 22.05 7.068 22.05 C 6.859 22.05 6.685 22.011 6.546 21.933 C 6.373 21.894 6.234 21.816 6.129 21.7 C 5.99 21.583 5.886 21.427 5.816 21.233 C 5.747 21.077 5.712 20.883 5.712 20.649 Z M 10.509 20.649 C 10.509 20.844 10.474 21.038 10.405 21.233 C 10.335 21.388 10.266 21.525 10.196 21.641 C 10.092 21.758 9.97 21.855 9.831 21.933 C 9.692 22.011 9.536 22.05 9.362 22.05 C 9.223 22.05 9.084 22.011 8.945 21.933 C 8.806 21.855 8.684 21.758 8.58 21.641 C 8.51 21.525 8.441 21.388 8.371 21.233 C 8.337 21.038 8.319 20.844 8.319 20.649 C 8.319 20.416 8.337 20.221 8.371 20.066 C 8.441 19.871 8.51 19.716 8.58 19.599 C 8.684 19.482 8.806 19.385 8.945 19.307 C 9.084 19.229 9.223 19.19 9.362 19.19 C 9.536 19.19 9.692 19.229 9.831 19.307 C 9.97 19.385 10.092 19.482 10.196 19.599 C 10.266 19.716 10.335 19.871 10.405 20.066 C 10.474 20.221 10.509 20.416 10.509 20.649 Z M 10.04 20.649 C 10.04 20.338 9.988 20.085 9.883 19.891 C 9.744 19.735 9.571 19.657 9.362 19.657 C 9.188 19.657 9.032 19.735 8.893 19.891 C 8.788 20.085 8.736 20.338 8.736 20.649 C 8.736 20.922 8.788 21.155 8.893 21.35 C 9.032 21.544 9.188 21.641 9.362 21.641 C 9.571 21.641 9.744 21.544 9.883 21.35 C 9.988 21.155 10.04 20.922 10.04 20.649 Z" style="fill: rgb(67, 146, 67); text-wrap-mode: nowrap;"/><path d="M 11.917 21.641 C 12.125 21.641 12.299 21.602 12.438 21.525 C 12.543 21.408 12.595 21.252 12.595 21.058 C 12.595 20.98 12.577 20.902 12.543 20.824 C 12.473 20.708 12.403 20.63 12.334 20.591 C 12.264 20.513 12.195 20.455 12.125 20.416 C 12.021 20.377 11.934 20.338 11.865 20.299 C 11.76 20.26 11.656 20.202 11.552 20.124 C 11.448 20.085 11.361 20.027 11.291 19.949 C 11.222 19.871 11.169 19.774 11.135 19.657 C 11.1 19.54 11.083 19.424 11.083 19.307 C 11.083 18.996 11.169 18.743 11.343 18.548 C 11.517 18.393 11.76 18.315 12.073 18.315 C 12.143 18.315 12.23 18.315 12.334 18.315 C 12.403 18.315 12.473 18.334 12.543 18.373 C 12.612 18.373 12.682 18.393 12.751 18.432 C 12.821 18.471 12.873 18.49 12.907 18.49 L 12.751 18.898 C 12.682 18.86 12.595 18.821 12.49 18.782 C 12.351 18.743 12.212 18.723 12.073 18.723 C 11.899 18.723 11.76 18.762 11.656 18.84 C 11.552 18.918 11.5 19.054 11.5 19.249 C 11.5 19.326 11.517 19.404 11.552 19.482 C 11.587 19.56 11.621 19.618 11.656 19.657 C 11.726 19.735 11.795 19.793 11.865 19.832 C 11.934 19.871 12.021 19.91 12.125 19.949 C 12.264 19.988 12.386 20.046 12.49 20.124 C 12.595 20.202 12.682 20.28 12.751 20.357 C 12.855 20.435 12.925 20.533 12.96 20.649 C 12.994 20.766 13.012 20.902 13.012 21.058 C 13.012 21.369 12.925 21.622 12.751 21.816 C 12.543 21.972 12.264 22.05 11.917 22.05 C 11.813 22.05 11.708 22.05 11.604 22.05 C 11.5 22.011 11.413 21.992 11.343 21.992 C 11.239 21.953 11.169 21.914 11.135 21.875 C 11.065 21.836 11.013 21.816 10.978 21.816 L 11.135 21.408 C 11.204 21.447 11.291 21.505 11.395 21.583 C 11.534 21.622 11.708 21.641 11.917 21.641 Z M 13.533 20.649 C 13.533 20.377 13.568 20.163 13.637 20.007 C 13.707 19.813 13.811 19.657 13.95 19.54 C 14.055 19.424 14.194 19.346 14.367 19.307 C 14.541 19.229 14.715 19.19 14.889 19.19 C 14.993 19.19 15.115 19.21 15.254 19.249 C 15.358 19.249 15.48 19.268 15.619 19.307 L 15.515 19.774 C 15.41 19.696 15.306 19.657 15.202 19.657 C 15.097 19.657 14.993 19.657 14.889 19.657 C 14.785 19.657 14.68 19.677 14.576 19.716 C 14.437 19.754 14.333 19.813 14.263 19.891 C 14.194 19.968 14.124 20.066 14.055 20.182 C 14.02 20.299 14.002 20.455 14.002 20.649 C 14.002 20.805 14.02 20.941 14.055 21.058 C 14.124 21.174 14.194 21.291 14.263 21.408 C 14.333 21.486 14.437 21.544 14.576 21.583 C 14.68 21.622 14.802 21.641 14.941 21.641 C 15.045 21.641 15.15 21.622 15.254 21.583 C 15.358 21.583 15.462 21.564 15.567 21.525 L 15.671 21.933 C 15.532 21.972 15.41 21.992 15.306 21.992 C 15.167 22.03 15.028 22.05 14.889 22.05 C 14.68 22.05 14.506 22.011 14.367 21.933 C 14.194 21.894 14.055 21.816 13.95 21.7 C 13.811 21.583 13.707 21.427 13.637 21.233 C 13.568 21.077 13.533 20.883 13.533 20.649 Z M 17.235 21.641 C 17.339 21.641 17.444 21.641 17.548 21.641 C 17.618 21.641 17.687 21.622 17.757 21.583 L 17.757 20.766 C 17.687 20.766 17.618 20.766 17.548 20.766 C 17.478 20.727 17.392 20.708 17.287 20.708 C 17.218 20.708 17.148 20.727 17.079 20.766 C 16.974 20.766 16.905 20.785 16.87 20.824 C 16.801 20.863 16.749 20.902 16.714 20.941 C 16.679 21.019 16.662 21.097 16.662 21.174 C 16.662 21.33 16.714 21.447 16.818 21.525 C 16.922 21.602 17.061 21.641 17.235 21.641 Z M 17.183 19.19 C 17.357 19.19 17.513 19.229 17.652 19.307 C 17.791 19.346 17.896 19.404 17.965 19.482 C 18.035 19.599 18.087 19.716 18.122 19.832 C 18.156 19.949 18.174 20.085 18.174 20.241 L 18.174 21.933 C 18.069 21.972 17.93 21.992 17.757 21.992 C 17.583 22.03 17.409 22.05 17.235 22.05 C 17.131 22.05 17.009 22.03 16.87 21.992 C 16.731 21.992 16.627 21.953 16.557 21.875 C 16.453 21.797 16.366 21.7 16.297 21.583 C 16.227 21.505 16.192 21.369 16.192 21.174 C 16.192 21.019 16.227 20.883 16.297 20.766 C 16.366 20.688 16.453 20.61 16.557 20.533 C 16.627 20.455 16.731 20.396 16.87 20.357 C 16.974 20.357 17.096 20.357 17.235 20.357 C 17.409 20.357 17.583 20.377 17.757 20.416 L 17.757 20.241 C 17.757 20.163 17.739 20.085 17.704 20.007 C 17.704 19.93 17.687 19.871 17.652 19.832 C 17.583 19.754 17.513 19.696 17.444 19.657 C 17.374 19.618 17.287 19.599 17.183 19.599 C 17.009 19.599 16.87 19.618 16.766 19.657 C 16.662 19.696 16.575 19.716 16.505 19.716 L 16.453 19.307 C 16.523 19.307 16.627 19.288 16.766 19.249 C 16.905 19.21 17.044 19.19 17.183 19.19 Z M 18.904 19.365 C 19.043 19.326 19.199 19.288 19.373 19.249 C 19.512 19.21 19.651 19.19 19.79 19.19 C 20.103 19.19 20.346 19.288 20.52 19.482 C 20.694 19.677 20.781 19.988 20.781 20.416 L 20.781 21.992 L 20.364 21.992 L 20.364 20.474 C 20.364 20.319 20.346 20.182 20.311 20.066 C 20.277 19.949 20.242 19.871 20.207 19.832 C 20.138 19.754 20.068 19.696 19.999 19.657 C 19.929 19.657 19.86 19.657 19.79 19.657 C 19.721 19.657 19.634 19.657 19.529 19.657 C 19.46 19.657 19.39 19.677 19.321 19.716 L 19.321 21.992 L 18.904 21.992 L 18.904 19.365 Z" style="fill: rgb(0, 0, 0); text-wrap-mode: nowrap;"/></g></svg>