<?xml version="1.0" encoding="utf-8"?>
<svg xmlns="http://www.w3.org/2000/svg" viewBox="2.292 0.379 19.321 16.396" width="644.0333333333334px" height="570.1717018039557px" preserveAspectRatio="none"><g id="object-5"><rect x="2.292" y="0.379" width="19.321" height="16.396" style="stroke: rgb(0, 0, 0); stroke-width: 0px; fill: rgba(0, 0, 0, 0);"/><circle cx="8.619" cy="13.02" r="2.04" style="stroke: rgb(0, 0, 0); stroke-linecap: round; stroke-width: 1.5px; fill-opacity: 0; stroke-opacity: 1; fill: rgba(0, 0, 0, 0);" transform="matrix(1.03789, 0, 0, 1.01312, 0.507688, -2.09303)" id="object-0"/><path d="M 3.102 11.098 C 3.102 9.165 3.102 8.197 3.578 7.502 C 3.784 7.201 4.048 6.943 4.357 6.741 C 5.068 6.277 6.06 6.277 8.041 6.277 L 10.864 6.277 C 12.846 6.277 13.838 6.277 14.549 6.741 C 14.859 6.943 15.123 7.201 15.328 7.502 C 15.804 8.197 15.804 9.165 15.804 11.098 C 15.804 13.033 15.804 14.001 15.328 14.696 C 15.123 14.997 14.859 15.256 14.549 15.457 C 13.838 15.921 12.846 15.921 10.864 15.921 L 8.042 15.921 C 6.06 15.921 5.068 15.921 4.357 15.457 C 4.048 15.256 3.784 14.997 3.578 14.696 C 3.415 14.457 3.306 14.187 3.237 13.854" style="stroke: rgb(0, 0, 0); stroke-linecap: round; stroke-width: 1.5px; fill-opacity: 0; stroke-opacity: 1; fill: rgba(0, 0, 0, 0);" id="object-1"/><path d="M 13.687 9.033 L 13.335 9.033" style="stroke: rgb(0, 0, 0); stroke-linecap: round; stroke-width: 1.5px; fill-opacity: 0; stroke-opacity: 1; fill: rgba(0, 0, 0, 0);" id="object-2"/><path id="Vector" d="M 15.759 6.088 C 18.813 7.876 21.257 5.491 20.951 1.02 C 16.37 0.722 13.927 3.107 15.759 6.088 Z M 15.759 6.088 C 15.759 6.088 15.759 6.088 15.759 6.088 Z M 15.759 6.088 L 14.969 6.858 M 15.759 6.088 L 17.413 4.474" stroke-linejoin="round" style="stroke: rgb(67, 146, 67); stroke-linecap: round; fill-opacity: 0; stroke-width: 1.25px; stroke-opacity: 1; fill: rgba(0, 0, 0, 0);"/></g></svg>