<?xml version="1.0" encoding="utf-8"?>
<svg width="800px" height="800px" viewBox="0 0 24 23.005" fill="none" xmlns="http://www.w3.org/2000/svg" xmlns:bx="https://boxy-svg.com" preserveAspectRatio="none"><defs><bx:export><bx:file format="svg" normalization="{&quot;convertTextsToPaths&quot;:true}"/></bx:export></defs><g id="object-4"><circle cx="8.619" cy="13.02" r="2.04" style="stroke: rgb(0, 0, 0); stroke-linecap: round; stroke-width: 1.5px; fill-opacity: 0;" transform="matrix(1.03789, 0, 0, 1.01312, 0.507688, -2.09303)" id="object-0"/><path d="M 3.102 11.098 C 3.102 9.165 3.102 8.197 3.578 7.502 C 3.784 7.201 4.048 6.943 4.357 6.741 C 5.068 6.277 6.06 6.277 8.041 6.277 L 10.864 6.277 C 12.846 6.277 13.838 6.277 14.549 6.741 C 14.859 6.943 15.123 7.201 15.328 7.502 C 15.804 8.197 15.804 9.165 15.804 11.098 C 15.804 13.033 15.804 14.001 15.328 14.696 C 15.123 14.997 14.859 15.256 14.549 15.457 C 13.838 15.921 12.846 15.921 10.864 15.921 L 8.042 15.921 C 6.06 15.921 5.068 15.921 4.357 15.457 C 4.048 15.256 3.784 14.997 3.578 14.696 C 3.415 14.457 3.306 14.187 3.237 13.854" style="stroke: rgb(0, 0, 0); stroke-linecap: round; stroke-width: 1.5px; fill-opacity: 0;" id="object-1"/><path d="M 13.687 9.033 L 13.335 9.033" style="stroke: rgb(0, 0, 0); stroke-linecap: round; stroke-width: 1.5px; fill-opacity: 0;" id="object-2"/><g id="Environment / Leaf" transform="matrix(0.431896, 0, 0, 0.421585, 12.81, -1.11329)" style=""><path id="Vector" d="M6.8291 17.0806C13.9002 21.3232 19.557 15.6663 18.8499 5.0598C8.24352 4.35269 2.58692 10.0097 6.8291 17.0806ZM6.8291 17.0806C6.82902 17.0805 6.82918 17.0807 6.8291 17.0806ZM6.8291 17.0806L5 18.909M6.8291 17.0806L10.6569 13.2522" stroke-linejoin="round" style="stroke: rgb(67, 146, 67); stroke-linecap: round; stroke-width: 2.66264px; fill-opacity: 0;"/></g><path d="M 6.91 9.54 L 6.91 8.92 L 7.25 8.92 L 7.25 8.99 L 6.99 8.99 L 6.99 9.18 L 7.22 9.18 L 7.22 9.25 L 6.99 9.25 L 6.99 9.47 L 7.28 9.47 L 7.28 9.54 Z M 7.36 9.31 Q 7.36 9.24 7.38 9.2 Q 7.4 9.15 7.44 9.12 Q 7.47 9.09 7.52 9.08 Q 7.57 9.06 7.62 9.06 Q 7.65 9.06 7.69 9.07 Q 7.72 9.07 7.76 9.08 L 7.74 9.16 Q 7.71 9.14 7.68 9.14 Q 7.65 9.14 7.62 9.14 Q 7.59 9.14 7.56 9.15 Q 7.52 9.16 7.5 9.18 Q 7.48 9.2 7.46 9.23 Q 7.45 9.26 7.45 9.31 Q 7.45 9.35 7.46 9.38 Q 7.48 9.41 7.5 9.44 Q 7.52 9.46 7.56 9.47 Q 7.59 9.48 7.63 9.48 Q 7.66 9.48 7.69 9.47 Q 7.72 9.47 7.75 9.46 L 7.77 9.53 Q 7.73 9.54 7.7 9.54 Q 7.66 9.55 7.62 9.55 Q 7.56 9.55 7.52 9.53 Q 7.47 9.52 7.44 9.49 Q 7.4 9.46 7.38 9.41 Q 7.36 9.37 7.36 9.31 Z M 8.28 9.31 Q 8.28 9.36 8.26 9.41 Q 8.24 9.45 8.22 9.48 Q 8.19 9.51 8.15 9.53 Q 8.11 9.55 8.06 9.55 Q 8.02 9.55 7.98 9.53 Q 7.94 9.51 7.91 9.48 Q 7.89 9.45 7.87 9.41 Q 7.86 9.36 7.86 9.31 Q 7.86 9.25 7.87 9.21 Q 7.89 9.16 7.91 9.13 Q 7.94 9.1 7.98 9.08 Q 8.02 9.06 8.06 9.06 Q 8.11 9.06 8.15 9.08 Q 8.19 9.1 8.22 9.13 Q 8.24 9.16 8.26 9.21 Q 8.28 9.25 8.28 9.31 Z M 8.19 9.31 Q 8.19 9.23 8.16 9.18 Q 8.12 9.14 8.06 9.14 Q 8.01 9.14 7.97 9.18 Q 7.94 9.23 7.94 9.31 Q 7.94 9.38 7.97 9.43 Q 8.01 9.48 8.06 9.48 Q 8.12 9.48 8.16 9.43 Q 8.19 9.38 8.19 9.31 Z" transform="matrix(5.21405, 0, 0, 5.83586, -32.6633, -33.682598)" style="fill: rgb(67, 146, 67); text-wrap-mode: nowrap;"/><path d="M 8.55 9.48 Q 8.61 9.48 8.65 9.46 Q 8.68 9.43 8.68 9.38 Q 8.68 9.36 8.67 9.34 Q 8.65 9.31 8.63 9.3 Q 8.61 9.28 8.59 9.27 Q 8.56 9.26 8.54 9.25 Q 8.51 9.24 8.48 9.22 Q 8.45 9.21 8.43 9.19 Q 8.41 9.17 8.4 9.14 Q 8.39 9.11 8.39 9.08 Q 8.39 9 8.44 8.95 Q 8.49 8.91 8.58 8.91 Q 8.6 8.91 8.63 8.91 Q 8.65 8.91 8.67 8.92 Q 8.69 8.92 8.71 8.93 Q 8.73 8.94 8.74 8.94 L 8.71 9.01 Q 8.69 9 8.66 8.99 Q 8.62 8.98 8.58 8.98 Q 8.53 8.98 8.5 9 Q 8.47 9.02 8.47 9.07 Q 8.47 9.09 8.48 9.11 Q 8.49 9.13 8.5 9.14 Q 8.52 9.16 8.54 9.17 Q 8.56 9.18 8.59 9.19 Q 8.63 9.2 8.66 9.22 Q 8.69 9.24 8.71 9.26 Q 8.74 9.28 8.75 9.31 Q 8.76 9.34 8.76 9.38 Q 8.76 9.46 8.71 9.51 Q 8.65 9.55 8.55 9.55 Q 8.52 9.55 8.49 9.55 Q 8.46 9.54 8.44 9.54 Q 8.41 9.53 8.4 9.52 Q 8.38 9.51 8.37 9.51 L 8.4 9.44 Q 8.42 9.45 8.45 9.47 Q 8.49 9.48 8.55 9.48 Z M 8.86 9.31 Q 8.86 9.24 8.88 9.2 Q 8.9 9.15 8.94 9.12 Q 8.97 9.09 9.02 9.08 Q 9.07 9.06 9.12 9.06 Q 9.15 9.06 9.19 9.07 Q 9.22 9.07 9.26 9.08 L 9.24 9.16 Q 9.21 9.14 9.18 9.14 Q 9.15 9.14 9.12 9.14 Q 9.09 9.14 9.06 9.15 Q 9.02 9.16 9 9.18 Q 8.98 9.2 8.96 9.23 Q 8.95 9.26 8.95 9.31 Q 8.95 9.35 8.96 9.38 Q 8.98 9.41 9 9.44 Q 9.02 9.46 9.06 9.47 Q 9.09 9.48 9.13 9.48 Q 9.16 9.48 9.19 9.47 Q 9.22 9.47 9.25 9.46 L 9.27 9.53 Q 9.23 9.54 9.2 9.54 Q 9.16 9.55 9.12 9.55 Q 9.06 9.55 9.02 9.53 Q 8.97 9.52 8.94 9.49 Q 8.9 9.46 8.88 9.41 Q 8.86 9.37 8.86 9.31 Z M 9.57 9.48 Q 9.6 9.48 9.63 9.48 Q 9.65 9.48 9.67 9.47 L 9.67 9.33 Q 9.65 9.33 9.63 9.33 Q 9.61 9.32 9.58 9.32 Q 9.56 9.32 9.54 9.33 Q 9.51 9.33 9.5 9.34 Q 9.48 9.35 9.47 9.36 Q 9.46 9.38 9.46 9.4 Q 9.46 9.44 9.49 9.46 Q 9.52 9.48 9.57 9.48 Z M 9.56 9.06 Q 9.61 9.06 9.65 9.08 Q 9.69 9.09 9.71 9.11 Q 9.73 9.14 9.74 9.17 Q 9.75 9.2 9.75 9.24 L 9.75 9.53 Q 9.72 9.54 9.67 9.54 Q 9.62 9.55 9.57 9.55 Q 9.54 9.55 9.5 9.54 Q 9.46 9.54 9.44 9.52 Q 9.41 9.5 9.39 9.47 Q 9.37 9.45 9.37 9.4 Q 9.37 9.36 9.39 9.33 Q 9.41 9.31 9.44 9.29 Q 9.46 9.27 9.5 9.26 Q 9.53 9.26 9.57 9.26 Q 9.62 9.26 9.67 9.27 L 9.67 9.24 Q 9.67 9.22 9.66 9.2 Q 9.66 9.18 9.65 9.17 Q 9.63 9.15 9.61 9.14 Q 9.59 9.13 9.56 9.13 Q 9.51 9.13 9.48 9.14 Q 9.45 9.15 9.43 9.15 L 9.42 9.08 Q 9.44 9.08 9.48 9.07 Q 9.52 9.06 9.56 9.06 Z M 9.89 9.09 Q 9.93 9.08 9.98 9.07 Q 10.02 9.06 10.06 9.06 Q 10.15 9.06 10.2 9.11 Q 10.25 9.16 10.25 9.27 L 10.25 9.54 L 10.17 9.54 L 10.17 9.28 Q 10.17 9.24 10.16 9.21 Q 10.15 9.18 10.14 9.17 Q 10.12 9.15 10.1 9.14 Q 10.08 9.14 10.06 9.14 Q 10.04 9.14 10.01 9.14 Q 9.99 9.14 9.97 9.15 L 9.97 9.54 L 9.89 9.54 Z" transform="matrix(5.21405, 0, 0, 5.83586, -32.6633, -33.682598)" style="fill: rgb(0, 0, 0); text-wrap-mode: nowrap;"/></g></svg>